<?xml version="1.0" encoding="utf-8"?>
<!-- Generator: Adobe Illustrator 26.3.1, SVG Export Plug-In . SVG Version: 6.00 Build 0)  -->
<svg version="1.1" id="b" xmlns="http://www.w3.org/2000/svg" x="0px" y="0px"
     viewBox="0 0 188.5 188.5" style="enable-background:new 0 0 188.5 188.5;" xml:space="preserve">
<style type="text/css">
	.st0{fill:#B4B4B5;}
	.st1{fill:#FFFFFF;}
	.st2{fill:#002642;}
	.st3{fill:none;stroke:#5C92DD;stroke-width:8;stroke-miterlimit:10;}
</style>
    <g>
	<path class="st0" d="M80.2,179.2c-22.6,0-41-18.4-41-41v-58c0-22.6,18.4-41,41-41h58c22.6,0,41,18.4,41,41v58c0,22.6-18.4,41-41,41
		H80.2z"/>
        <path class="st0" d="M138.2,45.2c19.3,0,35,15.7,35,35v58c0,19.3-15.7,35-35,35h-58c-19.3,0-35-15.7-35-35v-58
		c0-19.3,15.7-35,35-35H138.2 M138.2,33.2h-58c-25.9,0-47,21.1-47,47v58c0,25.9,21.1,47,47,47h58c25.9,0,47-21.1,47-47v-58
		C185.2,54.3,164.2,33.2,138.2,33.2L138.2,33.2z"/>
</g>
    <g>
	<path class="st1" d="M50.2,149.2c-22.6,0-41-18.4-41-41v-58c0-22.6,18.4-41,41-41h58c22.6,0,41,18.4,41,41v58c0,22.6-18.4,41-41,41
		H50.2z"/>
        <path class="st2" d="M108.2,15.2c19.3,0,35,15.7,35,35v58c0,19.3-15.7,35-35,35h-58c-19.3,0-35-15.7-35-35v-58
		c0-19.3,15.7-35,35-35H108.2 M108.2,3.2h-58c-25.9,0-47,21.1-47,47v58c0,25.9,21.1,47,47,47h58c25.9,0,47-21.1,47-47v-58
		C155.2,24.3,134.2,3.2,108.2,3.2L108.2,3.2z"/>
</g>
    <line class="st3" x1="39.2" y1="42.2" x2="119.2" y2="42.2"/>
    <line class="st3" x1="39.2" y1="75.2" x2="119.2" y2="75.2"/>
    <line class="st3" x1="39.2" y1="108.2" x2="119.2" y2="108.2"/>
</svg>
